<svg width="336" height="336" viewBox="0 0 336 336" fill="none" xmlns="http://www.w3.org/2000/svg">
<rect width="336" height="336" fill="#2E2E2E"/>
<path fill-rule="evenodd" clip-rule="evenodd" d="M240.295 147.507C238.356 146.668 236.773 145.284 235.548 143.353C232.779 143.155 230.009 142.957 227.24 142.76C223.954 142.794 221.184 143.585 218.932 145.133C214.509 138.92 209.366 133.184 203.503 127.924C184.116 115.458 164.335 103.59 144.161 92.3187C137.579 87.7161 132.239 81.9796 128.138 75.1094C129.6 84.1347 133.754 91.8492 140.6 98.2529C151.645 107.139 163.909 113.865 177.393 118.429C145.25 120.071 125.667 105.236 118.644 73.9226C116.779 63.3001 115.987 52.6185 116.27 41.8778C122.006 46.823 127.743 51.7681 133.479 56.7134C147.04 62.5458 160.095 69.2712 172.645 76.8897C180.832 83.964 185.778 92.8654 187.481 103.594C203.781 111.543 218.419 121.829 231.394 134.452C234.96 138.426 237.928 142.778 240.295 147.507Z" fill="#078D2A"/>
<path fill-rule="evenodd" clip-rule="evenodd" d="M107.369 171.244C102.226 169.662 97.0826 169.662 91.9397 171.244C98.3633 151.566 111.419 138.313 131.106 131.485C144.611 129.069 158.062 129.465 171.458 132.671C177.064 134.09 182.208 136.464 186.887 139.792C173.475 139.14 160.023 139.14 146.535 139.792C133.714 141.949 122.834 147.685 113.896 157.002C110.751 161.313 108.575 166.061 107.369 171.244Z" fill="#0E9533"/>
<path fill-rule="evenodd" clip-rule="evenodd" d="M240.295 147.507C255.61 187.334 248.094 222.346 217.745 252.543C188.835 275.475 157.977 278.244 125.171 260.851C105.736 248.497 93.6697 230.892 88.9725 208.036C87.3375 200.181 86.9419 192.269 87.7857 184.299C88.2796 179.517 89.6643 175.165 91.9396 171.244C97.0826 169.662 102.226 169.662 107.369 171.244C103.812 187.175 104.406 202.999 109.149 218.718C111.238 224.098 114.205 228.845 118.05 232.96C118.121 233.604 118.517 233.999 119.237 234.147C120.42 226.273 120.816 218.362 120.424 210.41C121.561 208.675 122.945 207.092 124.578 205.662C125.369 224.652 126.16 224.652 126.952 205.662C130.021 208.089 133.384 210.067 137.04 211.597C138.224 221.852 138.62 232.138 138.227 242.454C138.474 244.142 139.068 245.724 140.007 247.202C140.6 228.216 140.798 209.226 140.6 190.233C142.134 188.102 143.915 186.123 145.941 184.299C146.055 206.493 146.846 228.648 148.315 250.762C148.71 228.212 149.106 205.662 149.502 183.112C155.436 186.673 161.37 190.233 167.304 193.794C167.502 213.192 168.096 232.576 169.085 251.949C170.073 222.286 170.667 192.615 170.865 162.936C175.345 159.613 179.894 156.449 184.513 153.441C185.305 184.299 186.096 215.157 186.887 246.015C187.875 214.964 188.468 183.709 188.667 152.254C195.578 157.688 202.699 162.831 210.031 167.683C210.426 187.464 210.822 207.244 211.217 227.026C229.53 201.243 232.102 173.945 218.932 145.133C221.183 143.585 223.954 142.794 227.24 142.76C230.009 142.957 232.779 143.155 235.548 143.353C236.773 145.284 238.356 146.668 240.295 147.507Z" fill="#07A240"/>
</svg>
