<?xml version="1.0" encoding="UTF-8"?>
<!DOCTYPE svg PUBLIC "-//W3C//DTD SVG 1.1//EN" "http://www.w3.org/Graphics/SVG/1.1/DTD/svg11.dtd">
<svg xmlns="http://www.w3.org/2000/svg" version="1.1" width="225px" height="225px" style="shape-rendering:geometricPrecision; text-rendering:geometricPrecision; image-rendering:optimizeQuality; fill-rule:evenodd; clip-rule:evenodd" xmlns:xlink="http://www.w3.org/1999/xlink">
<g><path style="opacity:1" fill="#2e2e2e" d="M -0.5,-0.5 C 74.5,-0.5 149.5,-0.5 224.5,-0.5C 224.5,74.5 224.5,149.5 224.5,224.5C 149.5,224.5 74.5,224.5 -0.5,224.5C -0.5,149.5 -0.5,74.5 -0.5,-0.5 Z"/></g>
<g><path style="opacity:1" fill="#078d2a" d="M 172.5,100.5 C 170.866,99.7934 169.532,98.6268 168.5,97C 166.167,96.8333 163.833,96.6667 161.5,96.5C 158.731,96.5286 156.397,97.1952 154.5,98.5C 150.773,93.2653 146.44,88.4319 141.5,84C 125.165,73.4969 108.498,63.4969 91.5,54C 85.9547,50.122 81.4547,45.2886 78,39.5C 79.2314,47.1044 82.7314,53.6044 88.5,59C 97.8058,66.4873 108.139,72.154 119.5,76C 92.4179,77.3834 75.9179,64.8834 70,38.5C 68.4285,29.5498 67.7618,20.5498 68,11.5C 72.8333,15.6667 77.6667,19.8333 82.5,24C 93.9256,28.9142 104.926,34.5809 115.5,41C 122.398,46.9606 126.565,54.4606 128,63.5C 141.734,70.1982 154.068,78.8648 165,89.5C 168.005,92.8488 170.505,96.5155 172.5,100.5 Z"/></g>
<g><path style="opacity:1" fill="#0e9533" d="M 60.5,120.5 C 56.1667,119.167 51.8333,119.167 47.5,120.5C 52.9123,103.92 63.9123,92.7538 80.5,87C 91.8794,84.9649 103.213,85.2983 114.5,88C 119.223,89.1956 123.557,91.1956 127.5,94C 116.199,93.4505 104.865,93.4505 93.5,94C 82.6975,95.817 73.5308,100.65 66,108.5C 63.35,112.133 61.5167,116.133 60.5,120.5 Z"/></g>
<g><path style="opacity:1" fill="#2e2e2e" d="M 125.5,105.5 C 125.56,104.957 125.893,104.624 126.5,104.5C 127.5,130.825 127.833,157.158 127.5,183.5C 126.833,157.5 126.167,131.5 125.5,105.5 Z"/></g>
<g><path style="opacity:1" fill="#07a240" d="M 172.5,100.5 C 185.404,134.057 179.071,163.557 153.5,189C 129.141,208.322 103.141,210.655 75.5,196C 59.1244,185.591 48.9577,170.758 45,151.5C 43.6224,144.882 43.2891,138.215 44,131.5C 44.4162,127.471 45.5829,123.804 47.5,120.5C 51.8333,119.167 56.1667,119.167 60.5,120.5C 57.5035,133.923 58.0035,147.256 62,160.5C 63.7602,165.033 66.2602,169.033 69.5,172.5C 69.56,173.043 69.8933,173.376 70.5,173.5C 71.4967,166.866 71.83,160.2 71.5,153.5C 72.4577,152.038 73.6244,150.705 75,149.5C 75.6667,165.5 76.3333,165.5 77,149.5C 79.5864,151.545 82.4198,153.211 85.5,154.5C 86.498,163.141 86.8314,171.808 86.5,180.5C 86.7086,181.922 87.2086,183.255 88,184.5C 88.4999,168.503 88.6666,152.503 88.5,136.5C 89.7927,134.704 91.2927,133.037 93,131.5C 93.0957,150.2 93.7624,168.867 95,187.5C 95.3333,168.5 95.6667,149.5 96,130.5C 101,133.5 106,136.5 111,139.5C 111.167,155.844 111.667,172.177 112.5,188.5C 113.333,163.507 113.833,138.507 114,113.5C 117.775,110.7 121.608,108.034 125.5,105.5C 126.167,131.5 126.833,157.5 127.5,183.5C 128.332,157.337 128.832,131.003 129,104.5C 134.823,109.078 140.823,113.412 147,117.5C 147.333,134.167 147.667,150.833 148,167.5C 163.43,145.776 165.597,122.776 154.5,98.5C 156.397,97.1952 158.731,96.5286 161.5,96.5C 163.833,96.6667 166.167,96.8333 168.5,97C 169.532,98.6268 170.866,99.7934 172.5,100.5 Z"/></g>
<g><path style="opacity:1" fill="#2e2e2e" d="M 77.5,172.5 C 78.1894,171.226 79.0228,171.226 80,172.5C 80.7494,173.635 80.5827,174.635 79.5,175.5C 78.8243,174.398 78.1577,173.398 77.5,172.5 Z"/></g>
<g><path style="opacity:1" fill="#2e2e2e" d="M 77.5,164.5 C 80.2436,165.072 81.0769,166.738 80,169.5C 78.1079,168.383 77.2746,166.716 77.5,164.5 Z"/></g>
<g><path style="opacity:1" fill="#2e2e2e" d="M 82.5,161.5 C 84.9263,162.353 85.7596,164.019 85,166.5C 83.117,165.347 82.2837,163.681 82.5,161.5 Z"/></g>
<g><path style="opacity:1" fill="#2e2e2e" d="M 105.5,157.5 C 110.318,158.303 111.651,160.97 109.5,165.5C 105.906,164.112 104.573,161.445 105.5,157.5 Z"/></g>
<g><path style="opacity:1" fill="#2e2e2e" d="M 145.5,155.5 C 146.8,158.024 146.8,160.691 145.5,163.5C 144.893,163.376 144.56,163.043 144.5,162.5C 145.468,160.393 145.802,158.059 145.5,155.5 Z"/></g>
<g><path style="opacity:1" fill="#2e2e2e" d="M 82.5,155.5 C 85.2748,155.834 85.9415,157.167 84.5,159.5C 82.8888,158.68 82.2222,157.346 82.5,155.5 Z"/></g>
<g><path style="opacity:1" fill="#2e2e2e" d="M 145.5,155.5 C 145.802,158.059 145.468,160.393 144.5,162.5C 139.653,160.7 138.32,157.367 140.5,152.5C 142.396,153.275 144.063,154.275 145.5,155.5 Z"/></g>
<g><path style="opacity:1" fill="#2e2e2e" d="M 77.5,152.5 C 80.2436,153.072 81.0769,154.738 80,157.5C 78.1079,156.383 77.2746,154.716 77.5,152.5 Z"/></g>
<g><path style="opacity:1" fill="#2e2e2e" d="M 71.5,153.5 C 71.83,160.2 71.4967,166.866 70.5,173.5C 69.8933,173.376 69.56,173.043 69.5,172.5C 70.1667,166.167 70.8333,159.833 71.5,153.5 Z"/></g>
<g><path style="opacity:1" fill="#2e2e2e" d="M 98.5,145.5 C 104.192,145.626 105.858,148.293 103.5,153.5C 99.4536,152.394 97.7869,149.727 98.5,145.5 Z"/></g>
<g><path style="opacity:1" fill="#2e2e2e" d="M 98.5,135.5 C 103.556,136.611 105.222,139.611 103.5,144.5C 99.5135,142.866 97.8469,139.866 98.5,135.5 Z"/></g>
<g><path style="opacity:1" fill="#2e2e2e" d="M 88.5,136.5 C 88.6666,152.503 88.4999,168.503 88,184.5C 87.2086,183.255 86.7086,181.922 86.5,180.5C 87.1667,165.833 87.8333,151.167 88.5,136.5 Z"/></g>
<g><path style="opacity:1" fill="#2e2e2e" d="M 139.5,128.5 C 145.889,130.152 147.889,134.152 145.5,140.5C 140.309,138.287 138.309,134.287 139.5,128.5 Z"/></g>
<g><path style="opacity:1" fill="#2e2e2e" d="M 131.5,124.5 C 133.258,124.877 134.925,125.544 136.5,126.5C 137.833,129.5 137.833,132.5 136.5,135.5C 131.901,133.358 130.234,129.691 131.5,124.5 Z"/></g>
<g><path style="opacity:1" fill="#2e2e2e" d="M 131.5,111.5 C 137.267,113.42 139.101,117.42 137,123.5C 135.333,122.5 133.667,121.5 132,120.5C 131.502,117.518 131.335,114.518 131.5,111.5 Z"/></g>
</svg>
