<svg width="336" height="336" viewBox="0 0 336 336" fill="none" xmlns="http://www.w3.org/2000/svg">
<rect width="336" height="336" fill="#2e2e2e"/>
<path d="M166.215 153.146C162.288 149.219 155.921 149.219 151.994 153.146C148.067 157.072 148.067 163.439 151.994 167.366L180.436 195.808C184.363 199.735 190.729 199.735 194.656 195.808C198.583 191.881 198.583 185.514 194.656 181.587L166.215 153.146Z" fill="#FAFAFF"/>
<path d="M173.36 110.491C169.433 106.565 163.066 106.565 159.139 110.491C155.212 114.418 155.212 120.785 159.139 124.712L180.47 146.043C184.397 149.97 190.764 149.97 194.691 146.043C198.618 142.116 198.618 135.75 194.691 131.823L173.36 110.491Z" fill="#68ABDF"/>
<path d="M148.483 85.6126C144.556 81.6856 138.189 81.6856 134.262 85.6126C130.336 89.5395 130.336 95.9064 134.262 99.8333C138.189 103.76 144.556 103.76 148.483 99.8333C152.41 95.9064 152.41 89.5395 148.483 85.6126Z" fill="#99C47A"/>
<path d="M109.333 96.2633C105.406 92.3364 99.0393 92.3364 95.1123 96.2633C91.1854 100.19 91.1854 106.557 95.1123 110.484L127.109 142.481C131.036 146.408 137.403 146.408 141.33 142.481C145.257 138.554 145.257 132.187 141.33 128.26L109.333 96.2633Z" fill="#FFC66D"/>
<path d="M102.265 138.944C98.3376 135.017 91.9708 135.017 88.0438 138.944C84.1169 142.871 84.1169 149.238 88.0438 153.165L130.706 195.827C134.633 199.754 141 199.754 144.927 195.827C148.854 191.9 148.854 185.533 144.927 181.606L102.265 138.944Z" fill="#FF6470"/>
<path d="M145.358 209.684C140.41 212.205 138.442 218.26 140.964 223.208C143.485 228.157 149.54 230.124 154.488 227.603L190.327 209.342C195.275 206.821 197.243 200.766 194.721 195.818C192.2 190.869 186.145 188.902 181.197 191.423L145.358 209.684Z" fill="#FAFAFF"/>
<path d="M192.61 247.068C193.479 252.553 198.63 256.296 204.115 255.427C209.6 254.558 213.342 249.407 212.474 243.922L206.181 204.195C205.313 198.71 200.162 194.967 194.677 195.836C189.191 196.705 185.449 201.856 186.318 207.341L192.61 247.068Z" fill="#FAFAFF"/>
<path d="M242.78 213.621C248.265 214.489 253.416 210.747 254.285 205.262C255.154 199.777 251.411 194.626 245.926 193.757L206.199 187.465C200.714 186.596 195.563 190.338 194.694 195.824C193.825 201.309 197.568 206.46 203.053 207.328L242.78 213.621Z" fill="#FAFAFF"/>
<path d="M226.506 155.596C229.027 150.648 227.06 144.592 222.111 142.071C217.163 139.55 211.108 141.517 208.587 146.465L190.326 182.304C187.805 187.252 189.772 193.307 194.721 195.829C199.669 198.35 205.724 196.382 208.245 191.434L226.506 155.596Z" fill="#FAFAFF"/>
</svg>
