<?xml version="1.0" encoding="UTF-8"?>
<!DOCTYPE svg PUBLIC "-//W3C//DTD SVG 1.1//EN" "http://www.w3.org/Graphics/SVG/1.1/DTD/svg11.dtd">
<svg xmlns="http://www.w3.org/2000/svg" version="1.1" width="567px" height="567px" style="shape-rendering:geometricPrecision; text-rendering:geometricPrecision; image-rendering:optimizeQuality; fill-rule:evenodd; clip-rule:evenodd" xmlns:xlink="http://www.w3.org/1999/xlink">
<g><path style="opacity:1" fill="#2e2e2e" d="M -0.5,-0.5 C 188.5,-0.5 377.5,-0.5 566.5,-0.5C 566.5,188.5 566.5,377.5 566.5,566.5C 377.5,566.5 188.5,566.5 -0.5,566.5C -0.5,377.5 -0.5,188.5 -0.5,-0.5 Z"/></g>
<g><path style="opacity:1" fill="#b1b3b3" d="M 198.5,146.5 C 213.444,155.644 228.444,164.811 243.5,174C 244.833,174.667 244.833,175.333 243.5,176C 239.833,178.167 236.167,180.333 232.5,182.5C 222.833,176.333 213.167,170.167 203.5,164C 201.635,162.699 199.635,162.365 197.5,163C 171.249,179.375 145.082,195.875 119,212.5C 118.333,247.167 118.333,281.833 119,316.5C 124.749,320.292 130.582,323.958 136.5,327.5C 137.833,332.5 137.833,337.5 136.5,342.5C 126.833,336.5 117.167,330.5 107.5,324.5C 106.333,284.838 106.167,245.171 107,205.5C 137.82,186.183 168.32,166.516 198.5,146.5 Z"/></g>
<g><path style="opacity:1" fill="#b2b4b4" d="M 365.5,146.5 C 397.196,165.769 428.696,185.436 460,205.5C 460.5,245.165 460.667,284.832 460.5,324.5C 459.448,324.351 458.448,324.517 457.5,325C 448.335,331.084 439.002,336.917 429.5,342.5C 428.338,337.869 428.172,333.202 429,328.5C 435.032,324.303 441.199,320.303 447.5,316.5C 448.833,281.833 448.833,247.167 447.5,212.5C 421.167,196 394.833,179.5 368.5,163C 367.167,162.333 365.833,162.333 364.5,163C 354.167,169.5 343.833,176 333.5,182.5C 329.367,180.198 325.367,177.698 321.5,175C 336.402,165.725 351.069,156.225 365.5,146.5 Z"/></g>
<g><path style="opacity:1" fill="#f47e29" d="M 281.5,183.5 C 282.873,183.343 284.207,183.51 285.5,184C 315.751,203.042 345.918,222.208 376,241.5C 376.833,281.171 376.667,320.838 375.5,360.5C 344.833,379.833 314.167,399.167 283.5,418.5C 252.2,399.031 221.033,379.364 190,359.5C 189.333,320.167 189.333,280.833 190,241.5C 220.674,222.304 251.174,202.97 281.5,183.5 Z"/></g>
<g><path style="opacity:1" fill="#17181b" d="M 360.5,263.5 C 361.486,267.97 361.819,272.637 361.5,277.5C 335.444,293.281 309.277,308.948 283,324.5C 257.166,308.582 231.166,292.915 205,277.5C 204.333,272.5 204.333,267.5 205,262.5C 230.918,278.544 257.085,294.211 283.5,309.5C 309.029,293.904 334.696,278.57 360.5,263.5 Z"/></g>
<g><path style="opacity:1" fill="#945223" d="M 360.5,263.5 C 360.56,262.957 360.893,262.624 361.5,262.5C 362.814,267.652 362.814,272.652 361.5,277.5C 361.819,272.637 361.486,267.97 360.5,263.5 Z"/></g>
<g><path style="opacity:1" fill="#915022" d="M 360.5,317.5 C 360.56,316.957 360.893,316.624 361.5,316.5C 362.814,321.652 362.814,326.652 361.5,331.5C 361.819,326.637 361.486,321.97 360.5,317.5 Z"/></g>
<g><path style="opacity:1" fill="#17181b" d="M 360.5,317.5 C 361.486,321.97 361.819,326.637 361.5,331.5C 335.444,347.281 309.277,362.948 283,378.5C 257.166,362.582 231.166,346.915 205,331.5C 204.333,326.5 204.333,321.5 205,316.5C 231.166,331.915 257.166,347.582 283,363.5C 308.778,348.029 334.612,332.696 360.5,317.5 Z"/></g>
</svg>
